<svg xmlns="http://www.w3.org/2000/svg" width="400" height="224" viewBox="0 0 400 224">
  <rect width="400" height="224" fill="#111827"/>
  <!-- Driveway perspective lines -->
  <polygon points="150,224 250,224 220,80 180,80" fill="#374151"/>
  <line x1="160" y1="224" x2="183" y2="80" stroke="#4B5563" stroke-width="1"/>
  <line x1="170" y1="224" x2="186" y2="80" stroke="#4B5563" stroke-width="1"/>
  <line x1="210" y1="224" x2="214" y2="80" stroke="#4B5563" stroke-width="1"/>
  <line x1="230" y1="224" x2="217" y2="80" stroke="#4B5563" stroke-width="1"/>
  <line x1="150" y1="180" x2="250" y2="180" stroke="#6B7280" stroke-width="1"/>
  <line x1="152" y1="140" x2="248" y2="140" stroke="#6B7280" stroke-width="1"/>
  <line x1="155" y1="110" x2="245" y2="110" stroke="#6B7280" stroke-width="1"/>
  <!-- Car silhouette -->
  <rect x="155" y="100" width="90" height="35" rx="8" fill="none" stroke="#f97316" stroke-width="2"/>
  <rect x="165" y="88" width="70" height="18" rx="6" fill="none" stroke="#f97316" stroke-width="2"/>
  <circle cx="175" cy="137" r="9" fill="none" stroke="#f97316" stroke-width="2"/>
  <circle cx="225" cy="137" r="9" fill="none" stroke="#f97316" stroke-width="2"/>
  <!-- Label -->
  <rect x="100" y="180" width="200" height="30" rx="4" fill="#1F2937"/>
  <text x="200" y="200" text-anchor="middle" fill="#F9FAFB" font-family="system-ui,sans-serif" font-size="13" font-weight="600">Entrada de autos</text>
</svg>
